<svg width="16" height="25" viewBox="0 0 16 25" fill="none" xmlns="http://www.w3.org/2000/svg">
<g clip-path="url(#clip0_859_4)">
<path d="M13.8182 22.181C13.6727 22.181 13.5273 22.181 13.3818 22.181L2.61818 22.1068C1.23636 22.1068 0.0727273 20.9199 0.0727273 19.4362L0 2.67062C0 1.18694 1.16364 0 2.54545 0L13.3091 0.074184C13.9636 0.074184 14.6182 0.37092 15.1273 0.890208C15.6364 1.4095 15.8545 2.07715 15.8545 2.81899L16 19.5104C16 20.8457 15.0545 21.9585 13.8182 22.181ZM2.4 1.8546C2.03636 1.92878 1.74545 2.22552 1.74545 2.67062L1.81818 19.4362C1.81818 19.8813 2.18182 20.2522 2.61818 20.2522L13.4545 20.3264C13.6727 20.3264 13.8909 20.2522 14.0364 20.1039C14.1818 19.9555 14.2545 19.7329 14.2545 19.5104L14.1818 2.74481C14.1818 2.52226 14.1091 2.2997 13.9636 2.15134C13.8182 2.00297 13.6 1.92878 13.3818 1.92878H2.61818C2.54545 1.8546 2.47273 1.8546 2.4 1.8546Z" fill="#2E3138"/>
<path d="M8.36352 24.7774C7.63625 25.1483 6.69079 25.1483 6.03625 24.629C5.45443 24.1097 5.09079 23.2937 5.09079 22.4777L5.01807 5.63792C5.01807 4.15424 6.25443 3.63495 7.56352 2.9673L12.5817 0.37086C13.309 -6.0156e-05 14.2544 -6.01336e-05 14.909 0.519228C14.9817 0.593412 15.1272 0.667596 15.1999 0.74178C15.709 1.26107 15.9272 1.92872 15.9272 2.67056L15.9999 19.5103C15.9999 20.8456 16.1453 21.0682 14.8362 21.7358" fill="#2E3138"/>
<path d="M8.14568 11.7954C8.00022 11.8695 7.78204 11.8695 7.56386 11.7212C7.4184 11.5728 7.27295 11.4244 7.27295 11.2019V6.97339C7.27295 6.60248 7.56386 6.45411 7.92749 6.30574L9.16386 5.63808C9.38204 5.5639 9.60022 5.5639 9.74568 5.71227L9.8184 5.78645C9.96386 5.93482 10.0366 6.08319 10.0366 6.23156V10.46C10.0366 10.831 10.1093 10.831 9.74568 11.0535" fill="#FED100"/>
</g>
<defs>
<clipPath id="clip0_859_4">
<rect width="16" height="25" fill="white"/>
</clipPath>
</defs>
</svg>
