<svg width="13" height="22" viewBox="0 0 13 22" fill="none" xmlns="http://www.w3.org/2000/svg">
<g id="g" clip-path="url(#clip0_132_569)">
<g id="Group">
<path id="Vector" d="M7.34756 0.596559V6.84716C7.34756 7.30366 7.02214 7.70749 6.57681 7.76017C6.06298 7.81284 5.63478 7.40901 5.63478 6.88228L5.66904 4.96847C5.63478 4.17836 5.56627 1.98363 5.63478 0.877485V0.649233C5.63478 0.140055 6.06298 -0.0530817 6.55968 -0.00040812C7.02213 0.0522655 7.34756 0.140055 7.34756 0.596559Z" fill="#CCCCCC"/>
</g>
<g id="Group_2">
<path id="Vector_2" d="M13 21.3679C13 21.5786 11.7668 21.7015 10.0883 21.8069C9.04348 21.8771 7.87879 22 6.50856 22C5.25823 22 4.05929 21.8771 3.06588 21.8244C1.19895 21.7191 0 21.5962 0 21.3679C0 21.1397 0.890646 21.0343 2.60343 20.929C2.65481 20.929 2.70619 20.929 2.75758 20.9114C2.91173 20.8939 3.03162 20.7534 2.99736 20.5954C2.92885 20.2618 2.86034 19.9282 2.80896 19.5946C2.72332 19.0327 2.68906 18.4709 2.63768 17.8739C2.5863 17.3472 2.51779 16.7853 2.55204 16.2761C2.55204 16.2235 2.55204 16.1708 2.55204 16.1181L2.53491 15.8547C2.53491 14.1692 2.86034 13.1508 3.35705 12.1676C4.02503 10.8859 5.08696 10.1484 6.49144 10.1484C7.89592 10.1484 8.92358 10.6576 9.59157 11.9393C9.71146 12.1852 10.1054 12.9753 10.1397 13.5722C10.1568 13.8883 10.0198 14.2043 9.57444 14.3448C8.8722 14.5555 8.61528 14.2219 8.51252 13.9058C8.40975 13.5195 8.2556 12.9928 8.11858 12.747C7.72464 12.0798 7.14229 11.9042 6.50856 11.9042C6.11462 11.9042 5.84058 12.1149 5.54941 12.2729C5.18972 12.4661 4.93281 12.7119 4.72727 13.2211C4.4361 13.9409 4.35046 14.8539 4.33333 16.0303C4.33333 16.5746 4.29908 17.2418 4.35046 17.8739C4.40184 18.4358 4.4361 18.9625 4.53887 19.5595C4.59025 19.8579 4.65876 20.1915 4.72727 20.5251C4.76153 20.6656 4.88142 20.7709 5.03557 20.7709C5.53228 20.7534 6.02899 20.7358 6.50856 20.7358C7.0224 20.7358 7.5191 20.7358 7.99868 20.7534C8.1357 20.7534 8.2556 20.6656 8.27273 20.5251C8.32411 20.2267 8.37549 19.9106 8.42688 19.6297C8.44401 19.4366 8.46113 19.3136 8.49539 19.1381C8.59816 18.5587 8.64954 18.4533 8.64954 17.9441C8.64954 17.909 8.63241 17.8739 8.59816 17.8739C8.11858 17.8563 7.69038 17.8037 7.2108 17.8563C6.76548 17.8563 6.55995 17.5403 6.52569 17.0838C6.47431 16.5571 6.7141 16.0479 7.2108 16.0479C7.79315 16.1006 8.51252 16.1006 9.19763 16.0654C10.0198 16.0128 10.4993 16.4166 10.448 17.1365L10.4137 17.4701C10.4137 17.5754 10.3966 17.6632 10.3966 17.7686C10.3794 17.9792 10.3966 18.0495 10.3794 18.1724C10.3109 18.7694 10.2596 18.98 10.1739 19.5419C10.1568 19.7175 10.1568 19.8404 10.1225 19.9808C10.0883 20.2267 10.054 20.4198 10.0198 20.5954C9.98551 20.7358 10.0883 20.8763 10.2424 20.8763C11.9038 20.9641 13 21.1572 13 21.3679Z" fill="#CCCCCC"/>
</g>
<g id="Group_3">
<path id="Vector_3" d="M9.57414 8.34044C9.45425 8.34044 9.21446 8.30532 9.09456 8.25265C8.66637 8.04195 8.5636 7.62056 8.76913 7.18162C9.16307 6.51442 9.45425 5.51362 9.74542 4.96933C10.1736 4.10899 10.362 3.88074 10.5847 3.24866C10.7902 2.80971 11.2184 2.77459 11.6637 2.93262C12.1262 3.09064 12.3146 3.52958 12.1262 3.96853C11.8693 4.6884 11.5267 5.21514 11.2698 5.79455C10.9272 6.58465 10.6703 7.3572 10.362 7.84882C10.1907 8.16486 9.88244 8.34044 9.57414 8.34044Z" fill="#CCCCCC"/>
</g>
<g id="Group_4">
<path id="Vector_4" d="M3.42549 8.40989C3.10006 8.40989 2.89452 8.3221 2.74037 8.00605C2.53484 7.40909 2.12377 6.77701 1.78122 6.03958C1.47292 5.38993 1.26738 4.6525 0.839188 3.8624C0.633654 3.42345 0.890571 3.12497 1.31877 2.91428C1.74696 2.70358 2.20941 2.80893 2.41495 3.24788C2.63761 3.87996 2.94591 4.47693 3.23708 5.10901C3.56251 5.81132 3.85368 6.53119 4.24762 7.21595C4.45315 7.6549 4.33326 7.91827 3.95645 8.23431C3.83655 8.33965 3.54538 8.40989 3.42549 8.40989Z" fill="#CCCCCC"/>
</g>
</g>
<defs>
<clipPath id="clip0_132_569">
<rect width="13" height="22" fill="white"/>
</clipPath>
</defs>
</svg>
